#!OML:ASF E:/inclinewalkrobotboard/Project1/Captureday1/Session1/subject1.ASF
:FULLY-SPECIFIED
:DEGREES
51
root 0 0 0 -1.654263522100088 -2.958667978125625 -3.7319094541950673
lowerback 10.011180084721026 1.0678634197148282 1.5799884169844567
upperback 0.03467099561753417 1.6601267842696323 1.231993356718259
thorax -5.525921398260476 0.7812375342614519 0.14900566879278737
lowerneck -13.950501942659791 -2.925043284113024 -0.9968828237554482
upperneck 16.43413240095088 -3.9739735007901187 1.3992008924703003
head 7.608162066743839 -1.8644527109650906 0.2164069314293371
rclavicle -2.244271326181202E-16 -8.685096957188426E-17
rhumerus -20.15403994082259 -7.842037171023092 -67.94618536645142
rradius 58.87372585438274
rwrist -7.505207052781819
rhand -13.584688716086028 -7.3202701219176465
rfingers 7.125019999999873
rthumb 12.555992247279104 -36.59173638310618
lclavicle -8.401450840715538E-16 -3.8610543889148665E-16
lhumerus -39.74206149625592 0.2858948169982743 83.29370617505377
lradius 38.35860192401747
lwrist 2.636453574143316
lhand -19.322868686118486 0.5237095059435202
lfingers 7.125019999999877
lthumb 6.8906966385742425 30.031309114433903
rfemur -9.078083029521206 1.9821442461801444 14.163986563912669
rtibia 28.24015262414612
rfoot -1.1848141800487493 -3.217367460096635
rtoes 3.5451808940731984
lfemur 0.22920490998656984 -4.335415652556566 -19.651544047803778
ltibia 18.558366385090938
lfoot -19.0126884609071 5.243126589053838
ltoes -25.007188976287516
52
root 0 0 0 -1.8029440578746234 -1.5256755400617688 -1.4411730689357238
lowerback 10.001916127274006 0.1367833001048142 -0.8712199860582641
upperback 0.11426838827347457 0.14021434690523593 1.1800200061173067
thorax -5.461801451762108 0.08618196345602114 1.6923301197895748
lowerneck -13.964993773294406 -2.681214535337206 -1.1789083064354517
upperneck 16.53271040670954 -3.5536037848831836 1.2597301216158463
head 7.622879385968294 -1.695285353330046 0.2467215641780344
rclavicle -2.352857147068093E-16 -1.0311410803713825E-16
rhumerus -20.383152919200885 -8.09992901108041 -68.19479511814724
rradius 58.10587701941013
rwrist -7.215812185798487
rhand -13.686821772337574 -6.602430212021481
rfingers 7.125019999999877
rthumb 12.455123345949094 -35.886521183442255
lclavicle -7.948186290877366E-16 -3.7804940875756854E-16
lhumerus -39.517248764172024 0.24557477992236154 83.27853214658425
lradius 38.12813975233278
lwrist 2.738682442920933
lhand -19.53357140619092 1.157044409100676
lfingers 7.12501999999988
lthumb 6.693503767332916 30.673346708261683
rfemur -9.327879078214028 2.129664419063398 14.30340517443777
rtibia 27.33075595503542
rfoot -1.859249148992538 -3.467624023703226
rtoes 3.046606094457794
lfemur 1.1421841870782163 -4.379783296656288 -20.22272976716497
ltibia 18.067527628486943
lfoot -19.07954178965424 5.035157304843459
ltoes -24.30239817510486
53
root 0 0 0 -2.0186234883296708 -0.5901347083982604 0.18954694589380638
lowerback 10.0507555130031 -0.526431266707666 -2.496999660559383
upperback 0.211162004304354 -0.9279439669102993 1.198987874373145
thorax -5.388108883640109 -0.4022206991763929 2.78241814676284
lowerneck -14.331859200237195 -2.543762184662994 -1.4213332302430821
upperneck 16.946680667690362 -3.274864405875451 1.0834072790864546
head 7.817961313888628 -1.58991513267125 0.2498038254139255
rclavicle -2.4113592082047545E-16 -1.1991141178402127E-16
rhumerus -20.509786311582527 -8.243347382323375 -68.32360289688557
rradius 57.692302043756975
rwrist -7.060202632513848
rhand -13.742804876880077 -6.2037414917819085
rfingers 7.1250199999998785
rthumb 12.399843409986723 -35.49661582886342
lclavicle -7.65443755111672E-16 -3.766529053538867E-16
lhumerus -39.40520370990631 0.22113482746903598 83.27124074435143
lradius 38.02283745228582
lwrist 2.788179237015692
lhand -19.632532075401958 1.4583200552005735
lfingers 7.125019999999882
lthumb 6.599713074970129 30.97851300474889
rfemur -9.425370043818944 1.9662409870600883 13.7325584508148
rtibia 27.087437293069247
rfoot -1.479777992798426 -3.377720072409262
rtoes 3.026434838139364
lfemur 1.4029413963665656 -4.30924589393123 -20.582381968117375
ltibia 18.3405836792329
lfoot -18.688323671112578 4.601731892487692
ltoes -23.147325800242147
54
root 0 0 0 -2.1412414001327273 -0.36160096657196594 0.6660662631240704
lowerback 10.105381904236772 -0.7219915626097295 -2.904702956221124
upperback 0.2648081965007561 -1.2364042700361604 1.2374485044863086
thorax -5.348522598634371 -0.5414317394000364 3.0965771312710935
lowerneck -14.646396014384422 -2.5257960009076674 -1.5601804941446897
upperneck 17.281167449482567 -3.2081360251279056 0.9901238498042537
head 7.9770234894213345 -1.5681475449382167 0.2405840968586782
rclavicle -2.252575396674927E-16 -1.2189757715308043E-16
rhumerus -20.395405458867586 -8.10138277001061 -68.17997367004669
rradius 58.13630471568878
rwrist -7.210271034966979
rhand -13.679184253193473 -6.633207808670118
rfingers 7.125019999999877
rthumb 12.461149283488142 -35.91751388638987
lclavicle -7.527272994716802E-16 -3.825717951363494E-16
lhumerus -39.47288899088737 0.2073316651999715 83.2789920501967
lradius 38.15744165667036
lwrist 2.7620972535933017
lhand -19.548493220079514 1.1983937098265347
lfingers 7.125019999999879
lthumb 6.679381580284964 30.713604781615025
rfemur -9.654797040822805 1.7185858753940344 13.292967286656477
rtibia 28.115704038380137
rfoot -0.5695169063046122 -3.1879972501910556
rtoes 3.521601058386344
lfemur 1.02424295437251 -4.105873979309605 -20.67060391767717
ltibia 19.55839527408758
lfoot -17.836710999389876 3.9256862975845963
ltoes -21.790910344337124
55
root 0 0 0 -2.2385876535898075 -0.3046595844274613 0.8458153699480682
lowerback 10.153835689793752 -0.8058171204497886 -3.0073232474796447
upperback 0.3069894419138947 -1.3610167904586947 1.2837636470506588
thorax -5.319854042265602 -0.5963536237294899 3.2196281832153444
lowerneck -14.944618661907096 -2.5329443526287605 -1.667852427603691
upperneck 17.621300314495038 -3.1858872492854085 0.9100933815905579
head 8.123973949111285 -1.5648841420618447 0.2255895434469052
rclavicle -2.066793477855644E-16 -1.151351313339406E-16
rhumerus -20.16937730427697 -7.849140603552221 -67.91942943204255
rradius 58.92668380820113
rwrist -7.49014066005531
rhand -13.570414881258989 -7.380357144232331
rfingers 7.125019999999872
rthumb 12.566050221443271 -36.64724505779511
lclavicle -7.509015545800384E-16 -3.7615697852801803E-16
lhumerus -39.5012520564357 0.19744995063330426 83.2795964803882
lradius 38.22110280354876
lwrist 2.7547294568307534
lhand -19.51493910481522 1.0925800357487923
lfingers 7.1250199999998785
lthumb 6.711400314734669 30.603381566004536
rfemur -10.343807350092916 1.6138022544688084 13.751807973055433
rtibia 30.71446871843638
rfoot 0.19236271677186245 -3.184692419444525
rtoes 4.369117664809027
lfemur -0.48338615956341435 -3.662394827449335 -20.337232182685604
ltibia 22.448099617662372
lfoot -16.0691984064346 2.7436366797431795
ltoes -19.796402830332404
56
root 0 0 0 -2.276947896166209 -0.3347536949100691 0.8294699580724081
lowerback 10.170523969028315 -0.8098470143945535 -2.953154781980374
upperback 0.32316013373237235 -1.3605132981121186 1.3091846235149296
thorax -5.308565854708733 -0.5952850530121131 3.2156497322044277
lowerneck -15.080960359139397 -2.542609739311158 -1.7069664866215375
upperneck 17.79098037609316 -3.186591900526074 0.8736114031470108
head 8.189722378889607 -1.5684323221554564 0.2155635461474114
rclavicle -1.9866148276479998E-16 -1.0984763136900984E-16
rhumerus -20.071890418902136 -7.742509878728949 -67.80879309475259
rradius 59.26492164093541
rwrist -7.609911014190951
rhand -13.524608718270684 -7.696429791074127
rfingers 7.1250199999998705
rthumb 12.610105201361499 -36.95772707803245
lclavicle -7.484336198907125E-16 -3.726592994599294E-16
lhumerus -39.43050207602121 0.1937981644328354 83.27207403200592
lradius 38.12361834100521
lwrist 2.786424505158994
lhand -19.591275228777242 1.3238044569995768
lfingers 7.12501999999988
lthumb 6.6396536266391815 30.83817690746018
rfemur -10.802298790342826 1.7460357075394966 14.543720115719337
rtibia 32.058685831094515
rfoot 0.02777556923271396 -3.3747915396724935
rtoes 4.652692655808224
lfemur -2.138978012440031 -3.3143349037291134 -19.717233210511854
ltibia 24.867343256138355
lfoot -14.73545724093991 2.0199854383683977
ltoes -18.854588204739127
